<svg width="841" height="344" viewBox="0 0 841 344" fill="none" xmlns="http://www.w3.org/2000/svg">
<path d="M692.743 273.707L692.743 215.113C694.761 212.965 697.723 210.458 701.629 207.594C705.471 204.794 710.516 202.32 716.766 200.172C722.951 198.089 730.503 197.047 739.422 197.047C747.3 197.047 754.462 198.284 760.907 200.758C767.287 203.232 772.788 206.975 777.411 211.988C781.968 217.066 785.451 223.382 787.86 230.934C790.269 238.551 791.473 247.568 791.473 257.984L791.473 282.203C791.473 292.49 790.334 301.441 788.055 309.059C785.711 316.741 782.326 323.121 777.899 328.199C773.472 333.277 768.198 337.053 762.079 339.527C755.894 342.001 748.928 343.238 741.18 343.238C730.503 343.238 721.747 341.448 714.911 337.867C708.01 334.286 702.801 328.98 699.286 321.949C695.705 314.918 693.557 306.292 692.84 296.07L720.477 296.07C720.933 302.06 721.942 306.747 723.504 310.133C725.002 313.518 727.118 315.927 729.852 317.359C732.586 318.857 736.135 319.605 740.497 319.605C744.273 319.605 747.56 318.922 750.36 317.555C753.159 316.253 755.503 314.104 757.391 311.109C759.279 308.115 760.679 304.273 761.59 299.586C762.502 294.898 762.958 289.169 762.958 282.398L762.958 257.984C762.958 251.279 762.437 245.549 761.395 240.797C760.353 236.044 758.823 232.171 756.805 229.176C754.722 226.181 752.118 224 748.993 222.633C745.803 221.331 742.059 220.68 737.762 220.68C734.312 220.68 731.545 221.038 729.461 221.754C727.378 222.47 725.718 223.219 724.481 224C723.179 224.846 722.105 225.497 721.258 225.953L721.258 252.125L741.669 252.125L741.669 273.707L692.743 273.707ZM608.27 341.187L579.754 341.187L579.754 243.531C579.754 232.594 581.773 223.674 585.809 216.773C589.781 209.937 595.282 204.924 602.313 201.734C609.344 198.609 617.385 197.047 626.434 197.047C635.549 197.047 643.654 198.609 650.751 201.734C657.847 204.924 663.381 209.937 667.352 216.773C671.258 223.674 673.211 232.594 673.211 243.531L673.211 341.187L644.696 341.187L644.696 243.531C644.696 237.346 644.012 232.594 642.645 229.273C641.213 225.953 639.162 223.674 636.493 222.437C633.758 221.266 630.406 220.68 626.434 220.68C622.398 220.68 619.077 221.266 616.473 222.437C613.804 223.674 611.786 225.953 610.419 229.273C608.986 232.594 608.27 237.346 608.27 243.531L608.27 341.187ZM528.192 341.187L528.192 199L556.61 199L556.61 341.187L528.192 341.187ZM466.669 199L491.766 199L491.571 222.633L466.669 222.633C459.767 222.633 454.396 223.87 450.555 226.344C446.714 228.818 444.012 232.724 442.45 238.062C440.822 243.401 440.008 250.4 440.008 259.059L440.008 281.227C440.008 287.802 440.432 293.368 441.278 297.926C442.124 302.548 443.557 306.259 445.575 309.059C447.593 311.923 450.295 314.039 453.68 315.406C457.066 316.773 461.265 317.457 466.278 317.457L492.254 317.457L492.254 341.187L466.278 341.187C458.075 341.187 450.62 339.853 443.915 337.184C437.209 334.514 431.447 330.608 426.629 325.465C421.812 320.387 418.101 314.104 415.497 306.617C412.892 299.13 411.59 290.602 411.59 281.031L411.59 259.059C411.59 249.423 412.892 240.894 415.497 233.473C418.101 226.051 421.812 219.768 426.629 214.625C431.382 209.547 437.144 205.673 443.915 203.004C450.685 200.335 458.27 199 466.669 199ZM475.165 341.187L475.165 199L503.778 199L503.778 341.187L475.165 341.187ZM309.149 222.633L309.149 199L370.965 199L370.965 222.633L309.149 222.633ZM362.079 341.187L362.079 199L390.692 199L390.692 341.187L362.079 341.187ZM317.45 283.57L317.45 260.621L370.965 260.621L370.965 283.57L317.45 283.57ZM309.344 341.187L309.344 317.457L370.965 317.457L370.965 341.187L309.344 341.187ZM282.294 341.187L257.196 341.187L228.192 243.922L199.286 341.187L177.118 341.187L217.547 199L238.934 199L282.294 341.187ZM292.45 341.187L268.524 341.187L264.813 247.437L264.813 199L292.45 199L292.45 341.187ZM188.055 341.187L164.032 341.187L164.032 199L191.571 199L191.571 247.437L188.055 341.187ZM59.149 222.633L59.149 199L120.965 199L120.965 222.633L59.149 222.633ZM112.079 341.187L112.079 199L140.692 199L140.692 341.187L112.079 341.187ZM67.4498 283.57L67.4498 260.621L120.965 260.621L120.965 283.57L67.4498 283.57ZM59.3443 341.187L59.3443 317.457L120.965 317.457L120.965 341.187L59.3443 341.187Z" fill="#00FF85"/>
<path d="M85.1737 27.1V29.095L82.9337 30.11V38.16C81.7204 38.5567 80.3787 38.86 78.9087 39.07C77.462 39.3033 76.0854 39.42 74.7787 39.42C70.7187 39.42 67.6737 38.44 65.6437 36.48C63.637 34.52 62.6337 31.3933 62.6337 27.1C62.6337 22.83 63.6487 19.715 65.6787 17.755C67.732 15.7717 70.7654 14.78 74.7787 14.78C77.3454 14.78 80.0637 15.095 82.9337 15.725V21.92H80.4837L79.8887 17.965C78.232 17.5683 76.517 17.37 74.7437 17.37C72.527 17.37 70.7654 17.6733 69.4587 18.28C68.1754 18.8867 67.242 19.9017 66.6587 21.325C66.0754 22.725 65.7837 24.65 65.7837 27.1C65.7837 29.5967 66.0754 31.545 66.6587 32.945C67.242 34.345 68.1637 35.3483 69.4237 35.955C70.707 36.5383 72.4454 36.83 74.6387 36.83C76.622 36.83 78.3954 36.5967 79.9587 36.13V30.11L77.7187 29.095V27.1H85.1737ZM107.331 37.005V39H103.446L102.536 37.565C101.182 38.2417 99.9223 38.7317 98.7556 39.035C97.6123 39.3383 96.4456 39.49 95.2556 39.49C93.7623 39.49 92.584 39.2683 91.7206 38.825C90.8806 38.3583 90.274 37.635 89.9006 36.655C89.5273 35.6517 89.3406 34.31 89.3406 32.63V24.405L86.9606 23.355V21.43H92.2806V33.015C92.2806 34.3917 92.6073 35.395 93.2606 36.025C93.9373 36.6317 94.9173 36.935 96.2006 36.935C97.0173 36.935 97.8106 36.83 98.5806 36.62C99.374 36.41 100.517 36.0367 102.011 35.5V24.335L99.6306 23.355V21.43H104.951V36.025L107.331 37.005ZM113.751 13.765C114.474 13.765 115.046 13.975 115.466 14.395C115.909 14.815 116.131 15.41 116.131 16.18C116.131 16.95 115.909 17.545 115.466 17.965C115.046 18.385 114.474 18.595 113.751 18.595C113.028 18.595 112.444 18.385 112.001 17.965C111.581 17.545 111.371 16.95 111.371 16.18C111.371 15.41 111.581 14.815 112.001 14.395C112.444 13.975 113.028 13.765 113.751 13.765ZM115.501 36.025L117.881 37.075V39H110.181V37.075L112.561 36.025V24.405L110.181 23.425V21.43H115.501V36.025ZM139.223 37.075V39H135.058L134.148 36.48C133.192 37.46 132.153 38.1833 131.033 38.65C129.937 39.1167 128.7 39.35 127.323 39.35C125.083 39.35 123.427 38.9183 122.353 38.055C121.28 37.1917 120.743 35.7917 120.743 33.855C120.743 31.8017 121.385 30.32 122.668 29.41C123.952 28.4767 126.017 28.01 128.863 28.01C129.983 28.01 130.963 28.115 131.803 28.325C132.667 28.5117 133.367 28.745 133.903 29.025V27.66C133.903 26.5867 133.763 25.7583 133.483 25.175C133.227 24.5683 132.748 24.1367 132.048 23.88C131.372 23.6 130.38 23.46 129.073 23.46C126.717 23.46 124.267 23.74 121.723 24.3V21.78C124.313 21.22 126.787 20.94 129.143 20.94C131.337 20.94 132.982 21.1617 134.078 21.605C135.198 22.0483 135.933 22.69 136.283 23.53C136.657 24.37 136.843 25.5367 136.843 27.03V36.025L139.223 37.075ZM123.823 33.645C123.823 34.7883 124.103 35.605 124.663 36.095C125.247 36.585 126.297 36.83 127.813 36.83C128.933 36.83 130.007 36.6317 131.033 36.235C132.083 35.815 133.04 35.2433 133.903 34.52V31.02C132.597 30.6467 131.022 30.46 129.178 30.46C127.148 30.46 125.748 30.7167 124.978 31.23C124.208 31.7433 123.823 32.5483 123.823 33.645ZM170.885 37.075V39H166.72L165.81 36.48C164.83 37.46 163.78 38.1833 162.66 38.65C161.563 39.1167 160.292 39.35 158.845 39.35C157.258 39.35 155.952 39.0817 154.925 38.545C153.922 37.985 153.163 37.0517 152.65 35.745C152.137 34.415 151.88 32.595 151.88 30.285C151.88 26.995 152.51 24.615 153.77 23.145C155.03 21.675 156.827 20.94 159.16 20.94C160.233 20.94 161.283 21.0917 162.31 21.395C163.337 21.6983 164.422 22.1883 165.565 22.865V17.125L163.185 16.145V14.15H168.505V36.025L170.885 37.075ZM154.96 30.565C154.96 32.175 155.112 33.435 155.415 34.345C155.742 35.255 156.232 35.8967 156.885 36.27C157.538 36.62 158.39 36.795 159.44 36.795C161.61 36.795 163.652 36.0367 165.565 34.52V24.93C164.095 24.3933 162.975 24.02 162.205 23.81C161.458 23.6 160.677 23.495 159.86 23.495C158.11 23.495 156.85 24.0783 156.08 25.245C155.333 26.3883 154.96 28.1617 154.96 30.565ZM182.331 20.94C184.711 20.94 186.636 21.6867 188.106 23.18C189.599 24.65 190.346 26.8433 190.346 29.76V31.16H176.626C176.743 32.7233 177.023 33.925 177.466 34.765C177.933 35.5817 178.598 36.1533 179.461 36.48C180.348 36.8067 181.561 36.97 183.101 36.97C185.318 36.97 187.511 36.7017 189.681 36.165V38.685C188.771 38.9183 187.709 39.105 186.496 39.245C185.283 39.4083 184.128 39.49 183.031 39.49C179.928 39.49 177.571 38.79 175.961 37.39C174.351 35.99 173.546 33.5983 173.546 30.215C173.546 27.065 174.339 24.7317 175.926 23.215C177.513 21.6983 179.648 20.94 182.331 20.94ZM182.156 23.46C180.336 23.46 179.006 23.8683 178.166 24.685C177.326 25.5017 176.824 26.8317 176.661 28.675H187.231C187.091 26.9483 186.613 25.6533 185.796 24.79C184.979 23.9033 183.766 23.46 182.156 23.46ZM212.187 13.73C213.424 13.73 214.31 13.9167 214.847 14.29C215.407 14.6633 215.687 15.2817 215.687 16.145C215.687 16.9383 215.465 17.51 215.022 17.86C214.602 18.21 213.879 18.385 212.852 18.385L211.767 15.9C210.46 15.9 209.527 16.25 208.967 16.95C208.43 17.65 208.162 18.8517 208.162 20.555V21.43H211.767V23.88H208.162V36.025L211.417 37.075V39H202.842V37.075L205.222 36.025V23.88H202.842V21.92L205.222 21.43V20.73C205.222 18.3967 205.794 16.6467 206.937 15.48C208.08 14.3133 209.83 13.73 212.187 13.73ZM227.225 20.87C228.252 20.87 228.998 21.115 229.465 21.605C229.932 22.095 230.165 22.8533 230.165 23.88C230.165 25.77 229.092 26.715 226.945 26.715L225.545 23.565C224.635 23.7983 223.713 24.125 222.78 24.545C221.87 24.9417 221.053 25.3733 220.33 25.84V36.025L223.585 37.075V39H215.01V37.075L217.39 36.025V24.405L215.01 23.425V21.43H218.895L220.225 23.53C221.392 22.6667 222.582 22.0133 223.795 21.57C225.008 21.1033 226.152 20.87 227.225 20.87ZM241.362 20.94C244.045 20.94 246.192 21.6867 247.802 23.18C249.435 24.65 250.252 26.995 250.252 30.215C250.252 33.435 249.435 35.7917 247.802 37.285C246.192 38.755 244.045 39.49 241.362 39.49C238.678 39.49 236.52 38.755 234.887 37.285C233.277 35.7917 232.472 33.435 232.472 30.215C232.472 26.995 233.277 24.65 234.887 23.18C236.52 21.6867 238.678 20.94 241.362 20.94ZM241.362 23.46C239.962 23.46 238.842 23.6583 238.002 24.055C237.185 24.4517 236.567 25.14 236.147 26.12C235.75 27.1 235.552 28.465 235.552 30.215C235.552 31.965 235.75 33.33 236.147 34.31C236.567 35.29 237.185 35.9783 238.002 36.375C238.842 36.7717 239.962 36.97 241.362 36.97C242.762 36.97 243.87 36.7717 244.687 36.375C245.527 35.9783 246.145 35.29 246.542 34.31C246.962 33.33 247.172 31.965 247.172 30.215C247.172 28.465 246.962 27.1 246.542 26.12C246.145 25.14 245.527 24.4517 244.687 24.055C243.87 23.6583 242.762 23.46 241.362 23.46ZM273.661 37.075V39H268.341V27.415C268.341 26.0383 268.003 25.0467 267.326 24.44C266.673 23.81 265.705 23.495 264.421 23.495C263.605 23.495 262.8 23.6 262.006 23.81C261.236 24.02 260.105 24.3933 258.611 24.93V36.025L261.341 37.075V39H253.291V37.075L255.671 36.025V24.405L253.291 23.425V21.43H257.176L258.086 22.865C259.393 22.1883 260.63 21.6983 261.796 21.395C262.963 21.0917 264.153 20.94 265.366 20.94C266.836 20.94 268.003 21.1733 268.866 21.64C269.73 22.0833 270.348 22.8067 270.721 23.81C271.095 24.79 271.281 26.12 271.281 27.8V36.025L273.661 37.075ZM284.794 39.28C282.554 39.28 280.944 38.825 279.964 37.915C279.008 37.005 278.529 35.465 278.529 33.295V23.88H275.799V21.92L278.529 21.43L279.579 16.355H281.469V21.43L287.454 21.465V23.915L281.469 23.88V33.295C281.469 34.2517 281.586 34.975 281.819 35.465C282.053 35.955 282.438 36.2933 282.974 36.48C283.511 36.6667 284.293 36.76 285.319 36.76C286.113 36.76 286.941 36.6783 287.804 36.515V38.965C286.964 39.175 285.961 39.28 284.794 39.28ZM299.089 20.94C301.469 20.94 303.394 21.6867 304.864 23.18C306.357 24.65 307.104 26.8433 307.104 29.76V31.16H293.384C293.5 32.7233 293.78 33.925 294.224 34.765C294.69 35.5817 295.355 36.1533 296.219 36.48C297.105 36.8067 298.319 36.97 299.859 36.97C302.075 36.97 304.269 36.7017 306.439 36.165V38.685C305.529 38.9183 304.467 39.105 303.254 39.245C302.04 39.4083 300.885 39.49 299.789 39.49C296.685 39.49 294.329 38.79 292.719 37.39C291.109 35.99 290.304 33.5983 290.304 30.215C290.304 27.065 291.097 24.7317 292.684 23.215C294.27 21.6983 296.405 20.94 299.089 20.94ZM298.914 23.46C297.094 23.46 295.764 23.8683 294.924 24.685C294.084 25.5017 293.582 26.8317 293.419 28.675H303.989C303.849 26.9483 303.37 25.6533 302.554 24.79C301.737 23.9033 300.524 23.46 298.914 23.46ZM330.16 37.075V39H324.84V27.415C324.84 26.0383 324.502 25.0467 323.825 24.44C323.172 23.81 322.204 23.495 320.92 23.495C320.104 23.495 319.299 23.6 318.505 23.81C317.735 24.02 316.604 24.3933 315.11 24.93V36.025L317.84 37.075V39H309.79V37.075L312.17 36.025V24.405L309.79 23.425V21.43H313.675L314.585 22.865C315.892 22.1883 317.129 21.6983 318.295 21.395C319.462 21.0917 320.652 20.94 321.865 20.94C323.335 20.94 324.502 21.1733 325.365 21.64C326.229 22.0833 326.847 22.8067 327.22 23.81C327.594 24.79 327.78 26.12 327.78 27.8V36.025L330.16 37.075ZM352.003 37.075V39H347.838L346.928 36.48C345.948 37.46 344.898 38.1833 343.778 38.65C342.682 39.1167 341.41 39.35 339.963 39.35C338.377 39.35 337.07 39.0817 336.043 38.545C335.04 37.985 334.282 37.0517 333.768 35.745C333.255 34.415 332.998 32.595 332.998 30.285C332.998 26.995 333.628 24.615 334.888 23.145C336.148 21.675 337.945 20.94 340.278 20.94C341.352 20.94 342.402 21.0917 343.428 21.395C344.455 21.6983 345.54 22.1883 346.683 22.865V17.125L344.303 16.145V14.15H349.623V36.025L352.003 37.075ZM336.078 30.565C336.078 32.175 336.23 33.435 336.533 34.345C336.86 35.255 337.35 35.8967 338.003 36.27C338.657 36.62 339.508 36.795 340.558 36.795C342.728 36.795 344.77 36.0367 346.683 34.52V24.93C345.213 24.3933 344.093 24.02 343.323 23.81C342.577 23.6 341.795 23.495 340.978 23.495C339.228 23.495 337.968 24.0783 337.198 25.245C336.452 26.3883 336.078 28.1617 336.078 30.565Z" fill="white"/>
<path d="M148.793 116.293V174.887C146.775 177.035 143.812 179.542 139.906 182.406C136.065 185.206 131.02 187.68 124.77 189.828C118.585 191.911 111.033 192.953 102.113 192.953C94.2357 192.953 87.0742 191.716 80.6289 189.242C74.2487 186.768 68.7474 183.025 64.125 178.012C59.5677 172.934 56.0846 166.618 53.6758 159.066C51.2669 151.449 50.0625 142.432 50.0625 132.016V107.797C50.0625 97.5104 51.2018 88.5586 53.4805 80.9414C55.8242 73.2591 59.2096 66.8789 63.6367 61.8008C68.0638 56.7227 73.3372 52.9466 79.457 50.4727C85.6419 47.9987 92.6081 46.7617 100.355 46.7617C111.033 46.7617 119.789 48.5521 126.625 52.1328C133.526 55.7135 138.734 61.0195 142.25 68.0508C145.831 75.082 147.979 83.7083 148.695 93.9297H121.059C120.603 87.9401 119.594 83.2526 118.031 79.8672C116.534 76.4818 114.418 74.0729 111.684 72.6406C108.949 71.1432 105.401 70.3945 101.039 70.3945C97.263 70.3945 93.9753 71.0781 91.1758 72.4453C88.3763 73.7474 86.0326 75.8958 84.1445 78.8906C82.2565 81.8854 80.8568 85.7266 79.9453 90.4141C79.0339 95.1016 78.5781 100.831 78.5781 107.602V132.016C78.5781 138.721 79.099 144.451 80.1406 149.203C81.1823 153.956 82.7122 157.829 84.7305 160.824C86.8138 163.819 89.418 166 92.543 167.367C95.7331 168.669 99.4766 169.32 103.773 169.32C107.224 169.32 109.991 168.962 112.074 168.246C114.158 167.53 115.818 166.781 117.055 166C118.357 165.154 119.431 164.503 120.277 164.047V137.875H99.8672V116.293H148.793ZM233.266 48.8125H261.781V146.469C261.781 157.406 259.763 166.326 255.727 173.227C251.755 180.062 246.254 185.076 239.223 188.266C232.191 191.391 224.151 192.953 215.102 192.953C205.987 192.953 197.882 191.391 190.785 188.266C183.689 185.076 178.155 180.062 174.184 173.227C170.277 166.326 168.324 157.406 168.324 146.469V48.8125H196.84V146.469C196.84 152.654 197.523 157.406 198.891 160.727C200.323 164.047 202.374 166.326 205.043 167.562C207.777 168.734 211.13 169.32 215.102 169.32C219.138 169.32 222.458 168.734 225.062 167.562C227.732 166.326 229.75 164.047 231.117 160.727C232.549 157.406 233.266 152.654 233.266 146.469V48.8125ZM313.344 48.8125V191H284.926V48.8125H313.344ZM374.867 191H349.77L349.965 167.367H374.867C381.768 167.367 387.139 166.13 390.98 163.656C394.822 161.182 397.523 157.276 399.086 151.938C400.714 146.599 401.527 139.6 401.527 130.941V108.773C401.527 102.198 401.104 96.6315 400.258 92.0742C399.411 87.4518 397.979 83.7409 395.961 80.9414C393.943 78.0768 391.241 75.9609 387.855 74.5938C384.47 73.2266 380.271 72.543 375.258 72.543H349.281V48.8125H375.258C383.461 48.8125 390.915 50.1471 397.621 52.8164C404.327 55.4857 410.089 59.3919 414.906 64.5352C419.724 69.6133 423.435 75.8958 426.039 83.3828C428.643 90.8698 429.945 99.3984 429.945 108.969V130.941C429.945 140.577 428.643 149.105 426.039 156.527C423.435 163.949 419.724 170.232 414.906 175.375C410.154 180.453 404.392 184.327 397.621 186.996C390.85 189.665 383.266 191 374.867 191ZM366.371 48.8125V191H337.758V48.8125H366.371ZM532.387 167.367V191H470.57V167.367H532.387ZM479.457 48.8125V191H450.844V48.8125H479.457ZM524.086 106.43V129.379H470.57V106.43H524.086ZM532.191 48.8125V72.543H470.57V48.8125H532.191ZM559.242 48.8125H584.34L613.344 146.078L642.25 48.8125H664.418L623.988 191H602.602L559.242 48.8125ZM549.086 48.8125H573.012L576.723 142.562V191H549.086V48.8125ZM653.48 48.8125H677.504V191H649.965V142.562L653.48 48.8125ZM782.387 167.367V191H720.57V167.367H782.387ZM729.457 48.8125V191H700.844V48.8125H729.457ZM774.086 106.43V129.379H720.57V106.43H774.086ZM782.191 48.8125V72.543H720.57V48.8125H782.191Z" fill="white"/>
</svg>
