<svg width="100" height="100" viewBox="0 0 100 100" fill="none" xmlns="http://www.w3.org/2000/svg">
<path d="M25 84.375C24.9936 82.983 24.6732 81.6103 24.0625 80.3594L37.5 66.9219L37.5 56.25L31.25 56.25L31.25 64.3312L19.6406 75.9406C18.3897 75.3295 17.0172 75.008 15.625 75C13.7708 75 11.9582 75.5498 10.4165 76.58C8.87483 77.6101 7.67321 79.0743 6.96363 80.7873C6.25406 82.5004 6.06841 84.3854 6.43014 86.204C6.79188 88.0225 7.68476 89.693 8.99588 91.0041C10.307 92.3152 11.9775 93.2081 13.796 93.5699C15.6146 93.9316 17.4996 93.7459 19.2127 93.0364C20.9257 92.3268 22.3899 91.1252 23.42 89.5835C24.4502 88.0418 25 86.2292 25 84.375ZM12.5 84.375C12.5 83.7569 12.6833 83.1527 13.0267 82.6388C13.37 82.1249 13.8581 81.7244 14.4291 81.4879C15.0001 81.2514 15.6285 81.1895 16.2347 81.31C16.8409 81.4306 17.3977 81.7282 17.8347 82.1653C18.2718 82.6023 18.5694 83.1591 18.69 83.7653C18.8105 84.3715 18.7487 84.9999 18.5121 85.5709C18.2756 86.1419 17.8751 86.63 17.3612 86.9733C16.8473 87.3167 16.2431 87.5 15.625 87.5C14.7962 87.5 14.0013 87.1708 13.4153 86.5847C12.8292 85.9987 12.5 85.2038 12.5 84.375ZM59.375 84.375C59.3693 82.4424 58.7654 80.5589 57.6463 78.9833C56.5273 77.4076 54.9479 76.217 53.125 75.575L53.125 56.25L46.875 56.25L46.875 75.575C45.2588 76.1507 43.832 77.1596 42.7504 78.4913C41.6688 79.8231 40.9741 81.4265 40.7422 83.1264C40.5103 84.8263 40.75 86.5573 41.4353 88.1301C42.1206 89.703 43.225 91.0572 44.6279 92.0448C46.0307 93.0324 47.6781 93.6154 49.3899 93.7301C51.1017 93.8448 52.8121 93.4868 54.3342 92.6952C55.8563 91.9036 57.1315 90.7088 58.0205 89.2415C58.9095 87.7741 59.3781 86.0906 59.375 84.375V84.375ZM46.875 84.375C46.875 83.7569 47.0583 83.1527 47.4017 82.6388C47.745 82.1249 48.2331 81.7244 48.8041 81.4879C49.3751 81.2514 50.0035 81.1895 50.6097 81.31C51.2159 81.4306 51.7727 81.7282 52.2097 82.1653C52.6467 82.6023 52.9444 83.1591 53.065 83.7653C53.1855 84.3715 53.1236 84.9999 52.8871 85.5709C52.6506 86.1419 52.2501 86.63 51.7362 86.9733C51.2223 87.3167 50.6181 87.5 50 87.5C49.1712 87.5 48.3763 87.1708 47.7903 86.5847C47.2042 85.9987 46.875 85.2038 46.875 84.375ZM93.75 84.375C93.7475 81.8894 92.759 79.5062 91.0014 77.7486C89.2438 75.991 86.8606 75.0025 84.375 75C82.878 75.0107 81.4058 75.3838 80.0844 76.0875L68.75 64.3625L68.75 56.25L62.5 56.25L62.5 66.8875L75.7875 80.6375C75.2305 81.9148 74.9654 83.3002 75.0114 84.6929C75.0573 86.0856 75.4133 87.4505 76.0533 88.6882C76.6934 89.926 77.6013 91.0054 78.7112 91.848C79.821 92.6906 81.1048 93.2751 82.469 93.5589C83.8332 93.8428 85.2436 93.8189 86.5974 93.4889C87.9512 93.1589 89.2144 92.5313 90.295 91.6515C91.3756 90.7718 92.2465 89.6621 92.8441 88.4034C93.4418 87.1446 93.7513 85.7684 93.75 84.375ZM81.25 84.375C81.25 83.7569 81.4333 83.1527 81.7767 82.6388C82.12 82.1249 82.6081 81.7244 83.1791 81.4879C83.7501 81.2514 84.3785 81.1895 84.9847 81.31C85.5908 81.4306 86.1477 81.7283 86.5847 82.1653C87.0217 82.6023 87.3194 83.1592 87.44 83.7653C87.5605 84.3715 87.4986 84.9999 87.2621 85.5709C87.0256 86.1419 86.6251 86.63 86.1112 86.9733C85.5972 87.3167 84.9931 87.5 84.375 87.5C83.5462 87.5 82.7513 87.1708 82.1653 86.5847C81.5792 85.9987 81.25 85.2038 81.25 84.375Z" fill="#00FF85"/>
<path d="M81.25 56.25L81.25 62.5L87.5 62.5L87.5 56.25C87.494 54.4691 87.1053 52.7103 86.3602 51.0928C85.6151 49.4753 84.5309 48.0369 83.1812 46.875C84.5309 45.7131 85.6151 44.2747 86.3602 42.6572C87.1053 41.0397 87.4941 39.2809 87.5 37.5L87.5 34.375C87.4917 26.9183 84.5259 19.7694 79.2532 14.4968C73.9806 9.22409 66.8317 6.25827 59.375 6.25L40.625 6.25C33.1683 6.25827 26.0194 9.22409 20.7468 14.4968C15.4741 19.7694 12.5083 26.9183 12.5 34.375L12.5 37.5C12.506 39.2809 12.8947 41.0397 13.6398 42.6572C14.3849 44.2747 15.4691 45.7131 16.8188 46.875C15.4691 48.0369 14.3849 49.4753 13.6398 51.0928C12.8947 52.7103 12.506 54.4691 12.5 56.25L12.5 62.5L18.75 62.5L18.75 56.25C18.7517 54.5929 19.4107 53.0042 20.5824 51.8324C21.7542 50.6607 23.3429 50.0017 25 50L75 50C76.6571 50.0017 78.2458 50.6607 79.4176 51.8324C80.5893 53.0042 81.2483 54.5929 81.25 56.25V56.25ZM18.75 37.5L18.75 34.375C18.7594 29.1201 20.6588 24.044 24.1012 20.0737C27.5437 16.1034 32.2995 13.5039 37.5 12.75L37.5 18.75L43.75 18.75L43.75 12.5L56.25 12.5L56.25 21.875C56.2525 24.3606 57.241 26.7438 58.9986 28.5014C60.7562 30.259 63.1394 31.2475 65.625 31.25L71.875 31.25L71.875 25L65.625 25C64.7962 25 64.0013 24.6708 63.4153 24.0847C62.8292 23.4987 62.5 22.7038 62.5 21.875L62.5 12.75C67.7005 13.5039 72.4563 16.1034 75.8988 20.0737C79.3412 24.044 81.2406 29.1201 81.25 34.375L81.25 37.5C81.2483 39.1571 80.5893 40.7459 79.4176 41.9176C78.2458 43.0893 76.6571 43.7484 75 43.75L62.5 43.75L62.5 37.5L56.25 37.5L56.25 43.75L43.75 43.75L43.75 37.5C43.7475 35.0144 42.759 32.6312 41.0014 30.8736C39.2438 29.116 36.8606 28.1275 34.375 28.125L28.125 28.125L28.125 34.375L34.375 34.375C35.2038 34.375 35.9987 34.7042 36.5847 35.2903C37.1708 35.8763 37.5 36.6712 37.5 37.5L37.5 43.75L25 43.75C23.3429 43.7483 21.7542 43.0893 20.5824 41.9176C19.4107 40.7458 18.7517 39.1571 18.75 37.5V37.5Z" fill="#00FF85"/>
</svg>
