<svg width="66" height="66" viewBox="0 0 66 66" fill="none" xmlns="http://www.w3.org/2000/svg">
<path d="M16.5 55.6875C16.4958 54.7688 16.2843 53.8628 15.8813 53.0372L24.75 44.1684L24.75 37.125L20.625 37.125L20.625 42.4586L12.9628 50.1208C12.1372 49.7175 11.2314 49.5053 10.3125 49.5C9.08873 49.5 7.89244 49.8629 6.87491 50.5428C5.85738 51.2227 5.06432 52.189 4.596 53.3196C4.12768 54.4503 4.00515 55.6944 4.24389 56.8946C4.48264 58.0949 5.07194 59.1974 5.93728 60.0627C6.80262 60.9281 7.90512 61.5174 9.10538 61.7561C10.3056 61.9949 11.5497 61.8723 12.6804 61.404C13.811 60.9357 14.7773 60.1426 15.4572 59.1251C16.1371 58.1076 16.5 56.9113 16.5 55.6875ZM8.25 55.6875C8.25 55.2796 8.37096 54.8808 8.59759 54.5416C8.82423 54.2025 9.14635 53.9381 9.52322 53.782C9.90009 53.6259 10.3148 53.585 10.7149 53.6646C11.115 53.7442 11.4825 53.9406 11.7709 54.2291C12.0594 54.5175 12.2558 54.885 12.3354 55.2851C12.415 55.6852 12.3741 56.0999 12.218 56.4768C12.0619 56.8537 11.7975 57.1758 11.4584 57.4024C11.1192 57.629 10.7204 57.75 10.3125 57.75C9.76549 57.75 9.24089 57.5327 8.85409 57.1459C8.4673 56.7591 8.25 56.2345 8.25 55.6875ZM39.1875 55.6875C39.1837 54.412 38.7852 53.1689 38.0466 52.129C37.308 51.089 36.2656 50.3032 35.0625 49.8795L35.0625 37.125L30.9375 37.125L30.9375 49.8795C29.8708 50.2595 28.9291 50.9253 28.2153 51.8043C27.5014 52.6832 27.0429 53.7415 26.8898 54.8634C26.7368 55.9854 26.895 57.1278 27.3473 58.1659C27.7996 59.2039 28.5285 60.0977 29.4544 60.7496C30.3803 61.4014 31.4675 61.7862 32.5973 61.8619C33.7271 61.9376 34.856 61.7013 35.8606 61.1788C36.8651 60.6564 37.7068 59.8678 38.2935 58.8994C38.8803 57.9309 39.1895 56.8198 39.1875 55.6875ZM30.9375 55.6875C30.9375 55.2796 31.0585 54.8808 31.2851 54.5416C31.5117 54.2025 31.8338 53.9381 32.2107 53.782C32.5876 53.6259 33.0023 53.585 33.4024 53.6646C33.8025 53.7442 34.17 53.9406 34.4584 54.2291C34.7469 54.5175 34.9433 54.885 35.0229 55.2851C35.1025 55.6852 35.0616 56.0999 34.9055 56.4768C34.7494 56.8537 34.485 57.1758 34.1459 57.4024C33.8067 57.629 33.4079 57.75 33 57.75C32.453 57.75 31.9284 57.5327 31.5416 57.1459C31.1548 56.7591 30.9375 56.2345 30.9375 55.6875ZM61.875 55.6875C61.8734 54.047 61.2209 52.4741 60.0609 51.3141C58.9009 50.1541 57.328 49.5016 55.6875 49.5C54.6994 49.507 53.7278 49.7533 52.8557 50.2177L45.375 42.4793L45.375 37.125L41.25 37.125L41.25 44.1457L50.0197 53.2208C49.6521 54.0638 49.4771 54.9781 49.5075 55.8973C49.5378 56.8165 49.7728 57.7173 50.1952 58.5342C50.6176 59.3511 51.2169 60.0636 51.9494 60.6197C52.6819 61.1758 53.5291 61.5616 54.4295 61.7489C55.3299 61.9362 56.2607 61.9205 57.1543 61.7027C58.0478 61.4849 58.8815 61.0706 59.5947 60.49C60.3079 59.9094 60.8827 59.177 61.2771 58.3462C61.6716 57.5155 61.8758 56.6072 61.875 55.6875ZM53.625 55.6875C53.625 55.2796 53.746 54.8808 53.9726 54.5416C54.1992 54.2025 54.5213 53.9381 54.8982 53.782C55.2751 53.6259 55.6898 53.585 56.0899 53.6646C56.49 53.7442 56.8575 53.9406 57.1459 54.2291C57.4344 54.5175 57.6308 54.885 57.7104 55.2851C57.7899 55.6852 57.7491 56.0999 57.593 56.4768C57.4369 56.8537 57.1725 57.1758 56.8334 57.4024C56.4942 57.629 56.0954 57.75 55.6875 57.75C55.1405 57.75 54.6159 57.5327 54.2291 57.1459C53.8423 56.7591 53.625 56.2345 53.625 55.6875Z" fill="white"/>
<path d="M53.625 37.125L53.625 41.25L57.75 41.25L57.75 37.125C57.7461 35.9496 57.4895 34.7888 56.9977 33.7213C56.5059 32.6537 55.7904 31.7043 54.8996 30.9375C55.7904 30.1707 56.5059 29.2213 56.9977 28.1537C57.4895 27.0862 57.7461 25.9254 57.75 24.75L57.75 22.6875C57.7445 17.7661 55.7871 13.0478 52.3071 9.56786C48.8272 6.0879 44.1089 4.13046 39.1875 4.125L26.8125 4.125C21.8911 4.13046 17.1728 6.0879 13.6929 9.56786C10.2129 13.0478 8.25546 17.7661 8.25 22.6875L8.25 24.75C8.25392 25.9254 8.51047 27.0862 9.00226 28.1537C9.49405 29.2213 10.2096 30.1707 11.1004 30.9375C10.2096 31.7043 9.49405 32.6537 9.00226 33.7213C8.51047 34.7888 8.25392 35.9496 8.25 37.125L8.25 41.25L12.375 41.25L12.375 37.125C12.3761 36.0313 12.811 34.9827 13.5844 34.2094C14.3577 33.436 15.4063 33.0011 16.5 33L49.5 33C50.5937 33.0011 51.6423 33.436 52.4156 34.2094C53.189 34.9827 53.6239 36.0313 53.625 37.125ZM12.375 24.75L12.375 22.6875C12.3812 19.2193 13.6348 15.869 15.9068 13.2486C18.1788 10.6282 21.3177 8.91258 24.75 8.415L24.75 12.375L28.875 12.375L28.875 8.25L37.125 8.25L37.125 14.4375C37.1266 16.078 37.7791 17.6509 38.9391 18.8109C40.0991 19.9709 41.672 20.6234 43.3125 20.625L47.4375 20.625L47.4375 16.5L43.3125 16.5C42.7655 16.5 42.2409 16.2827 41.8541 15.8959C41.4673 15.5091 41.25 14.9845 41.25 14.4375L41.25 8.415C44.6823 8.91258 47.8212 10.6282 50.0932 13.2486C52.3652 15.869 53.6188 19.2193 53.625 22.6875L53.625 24.75C53.6239 25.8437 53.189 26.8923 52.4156 27.6656C51.6423 28.439 50.5937 28.8739 49.5 28.875L41.25 28.875L41.25 24.75L37.125 24.75L37.125 28.875L28.875 28.875L28.875 24.75C28.8734 23.1095 28.2209 21.5366 27.0609 20.3766C25.9009 19.2166 24.328 18.5641 22.6875 18.5625L18.5625 18.5625L18.5625 22.6875L22.6875 22.6875C23.2345 22.6875 23.7591 22.9048 24.1459 23.2916C24.5327 23.6784 24.75 24.203 24.75 24.75L24.75 28.875L16.5 28.875C15.4063 28.8739 14.3577 28.439 13.5844 27.6656C12.811 26.8923 12.3761 25.8437 12.375 24.75Z" fill="white"/>
</svg>
